<svg xmlns="http://www.w3.org/2000/svg" viewBox="0 0 100 100">
  <defs>
    <radialGradient id="ocean" cx="38%" cy="38%">
      <stop offset="0%" stop-color="#45A5D4"/>
      <stop offset="50%" stop-color="#1976B8"/>
      <stop offset="100%" stop-color="#0A3D6E"/>
    </radialGradient>
    <clipPath id="circle">
      <circle cx="50" cy="50" r="50"/>
    </clipPath>
  </defs>
  <!-- Ocean -->
  <circle cx="50" cy="50" r="50" fill="url(#ocean)"/>
  <g clip-path="url(#circle)">
    <!-- Europe -->
    <path d="M44 15 L48 14 L52 16 L54 18 L52 22 L48 24 L50 28 L48 32 L44 30 L42 26 L40 22 L42 18Z" fill="#3E9142" opacity="0.7"/>
    <!-- Africa -->
    <path d="M44 32 L48 33 L50 36 L52 40 L50 46 L48 52 L46 58 L44 64 L42 68 L38 66 L36 60 L34 54 L36 48 L38 42 L40 36Z" fill="#3E9142" opacity="0.65"/>
    <!-- North America -->
    <path d="M16 18 L22 14 L28 16 L30 20 L28 26 L26 30 L24 34 L20 38 L16 36 L14 30 L12 24 L14 20Z" fill="#3E9142" opacity="0.55"/>
    <!-- South America -->
    <path d="M22 42 L26 40 L28 44 L30 50 L28 56 L26 62 L24 68 L22 72 L18 70 L16 64 L18 58 L20 50Z" fill="#3E9142" opacity="0.5"/>
    <!-- Asia -->
    <path d="M56 16 L62 14 L68 16 L74 20 L78 26 L80 32 L76 36 L70 38 L64 36 L58 32 L54 26 L54 20Z" fill="#3E9142" opacity="0.6"/>
    <!-- Australia hint -->
    <path d="M72 56 L78 54 L82 58 L80 64 L76 66 L72 62Z" fill="#3E9142" opacity="0.4"/>
    <!-- Grid lines -->
    <ellipse cx="50" cy="50" rx="50" ry="18" fill="none" stroke="rgba(255,255,255,0.12)" stroke-width="0.7"/>
    <ellipse cx="50" cy="50" rx="50" ry="35" fill="none" stroke="rgba(255,255,255,0.12)" stroke-width="0.7"/>
    <ellipse cx="50" cy="50" rx="18" ry="50" fill="none" stroke="rgba(255,255,255,0.1)" stroke-width="0.7"/>
    <ellipse cx="50" cy="50" rx="35" ry="50" fill="none" stroke="rgba(255,255,255,0.1)" stroke-width="0.7"/>
    <line x1="0" y1="50" x2="100" y2="50" stroke="rgba(255,255,255,0.12)" stroke-width="0.7"/>
    <line x1="50" y1="0" x2="50" y2="100" stroke="rgba(255,255,255,0.1)" stroke-width="0.7"/>
  </g>
  <!-- Shine highlight -->
  <ellipse cx="32" cy="28" rx="14" ry="10" fill="rgba(255,255,255,0.08)" transform="rotate(-30 32 28)"/>
</svg>
